<?xml version="1.0" encoding="UTF-8"?>
<svg width="27px" height="47px" viewBox="0 0 27 47" version="1.1" xmlns="http://www.w3.org/2000/svg" xmlns:xlink="http://www.w3.org/1999/xlink">
    <!-- Generator: Sketch 51.1 (57501) - http://www.bohemiancoding.com/sketch -->
    <title>Group 10</title>
    <desc>Created with Sketch.</desc>
    <defs>
        <polygon id="path-1" points="0.000168419107 0 25.5165 0 25.5165 46.6061912 0.000168419107 46.6061912"></polygon>
    </defs>
    <g id="Page-1" stroke="none" stroke-width="1" fill="none" fill-rule="evenodd">
        <g id="Desktop-hd-Copy" transform="translate(-700.000000, -2577.000000)">
            <g id="Group-3" transform="translate(700.768195, 2577.404231)">
                <g id="Group-10">
                    <mask id="mask-2" fill="white">
                        <use xlink:href="#path-1"></use>
                    </mask>
                    <g id="Clip-2"></g>
                    <path d="M24.5830008,23.6652724 L24.1107957,23.3672788 C24.1474718,23.280173 24.1887324,23.1930672 24.2254086,23.1059614 L24.5830008,23.3351872 L24.5830008,23.6652724 Z M24.4683879,25.0085356 L23.634006,24.4813163 C23.6660976,24.3942105 23.7073582,24.3025201 23.7440344,24.2154143 L24.5050641,24.701373 C24.495895,24.8022324 24.481683,24.9076763 24.4683879,25.0085356 Z M24.2575002,26.2922001 L23.1659269,25.5999382 C23.1980185,25.5174169 23.2351531,25.4303111 23.2759553,25.3386208 L24.3120559,25.9987911 C24.2937179,26.0950659 24.2758382,26.1913408 24.2575002,26.2922001 Z M23.9732602,27.5300195 L22.7074753,26.7277292 C22.7491944,26.6222853 22.7858705,26.539764 22.8175037,26.4664118 L24.0466124,27.2457795 C24.0232314,27.3374698 23.9961828,27.4337447 23.9732602,27.5300195 Z M23.634006,28.7357473 L22.2627772,27.8646892 L22.2953273,27.7867524 C22.3182498,27.7225692 22.3452985,27.658386 22.3686795,27.5987872 L23.7160688,28.4560918 C23.6936047,28.5477821 23.6610546,28.6394724 23.634006,28.7357473 Z M23.3314279,29.6939111 C23.051314,29.7397563 22.5928624,29.657235 22.0197978,28.795346 L23.349766,29.6388969 C23.3451815,29.657235 23.335554,29.6755731 23.3314279,29.6939111 Z M22.1577918,32.8067976 C21.8001995,33.5082286 21.5567617,34.3242724 21.3004873,35.190746 C20.8282821,36.7815731 20.3423234,38.4274144 19.1411802,39.0830002 C19.1315527,39.0234015 19.1228421,38.9500492 19.1228421,38.867528 L19.1228421,38.8583589 L19.1228421,38.8262673 C19.1228421,38.8033447 19.1315527,38.7850067 19.1315527,38.7666686 C19.1315527,38.743746 19.1228421,38.725408 19.1182576,38.7024854 L19.1182576,38.6612247 C19.1228421,37.9506247 19.3108073,36.8824325 19.6821531,35.484155 C19.8105195,34.9981963 19.9663931,34.4618079 20.1726963,33.7970531 C20.3423234,33.2331576 20.5298301,32.6646776 20.7177953,32.1053666 C20.9057604,31.5414711 21.1028946,30.9913292 21.2959027,30.4595253 C21.2959027,30.4549408 21.3004873,30.4503563 21.3004873,30.4457718 C21.3091978,30.4182647 21.3234098,30.3861731 21.3275359,30.3540815 C21.4105157,30.1340247 21.4884524,29.9185524 21.5613462,29.7122492 C22.070686,30.3082363 22.5658137,30.5512156 23.0150963,30.6016453 C22.7624895,31.3030763 22.4832924,32.0320144 22.1577918,32.8067976 Z M18.8839888,34.906506 L13.1350055,34.906506 L13.2083578,34.7368789 C13.3046326,34.5122376 13.3921969,34.3059344 13.4701337,34.1225537 L19.1132146,34.1225537 C19.0311518,34.4022092 18.9573411,34.6635266 18.8839888,34.906506 Z M6.53376073,41.0818493 C6.56539389,41.0314196 6.59335944,40.9809899 6.62040809,40.9259757 L18.7922985,40.9259757 C18.8156795,40.9809899 18.8427282,41.0314196 18.8752782,41.0818493 C14.7762623,42.9110712 10.6318597,42.9110712 6.53376073,41.0818493 Z M12.4060675,36.602777 C12.5165543,36.3460441 12.6311672,36.0893112 12.7411956,35.8325783 L12.7457801,35.8234092 L18.6460524,35.8234092 C18.5814107,36.0938957 18.521812,36.3552131 18.4718408,36.602777 L12.4060675,36.602777 Z M11.6633759,38.308217 C11.7692782,38.0652376 11.8838911,37.7993357 12.0072146,37.5196802 L18.3022137,37.5196802 C18.2559101,37.8085047 18.2288614,38.0744067 18.2146494,38.308217 L11.6633759,38.308217 Z M9.22487171,38.308217 C9.47243559,38.0789912 9.72916849,37.8176738 9.99507043,37.5196802 L10.5951836,37.5196802 C10.5768455,37.758075 10.5355849,38.023977 10.4576481,38.308217 L9.22487171,38.308217 Z M10.1876201,39.2251202 C10.1321475,39.4910221 10.15507,39.7248325 10.4489375,39.8394454 C10.5222898,39.8669525 10.586473,39.880706 10.6501978,39.880706 C10.8936356,39.880706 11.0449246,39.6423112 11.2461849,39.2251202 L18.2329875,39.2251202 L18.2329875,39.2297047 C18.2792911,39.5093602 18.3388898,39.7706776 18.4122421,40.0090725 L7.00092293,40.0090725 C7.03759906,39.880706 7.07473364,39.7523396 7.10178228,39.6148041 C7.41398783,39.5231138 7.70693842,39.3993318 8.00539042,39.2251202 L10.1876201,39.2251202 Z M5.94235815,38.9042041 C5.91943557,38.9042041 5.9010975,38.9087886 5.88275944,38.9087886 L5.72642744,38.9225421 C5.53387776,38.9408802 5.34132808,38.9592183 5.1629904,38.9958944 C5.17674395,38.6520557 5.48849105,37.8360118 5.68104073,37.322546 C5.89605453,36.7678196 6.09364718,36.2406002 6.1986326,35.7867331 C6.23118267,35.6583666 6.24952073,35.5345847 6.26327428,35.4199718 C6.28161234,35.2411757 6.29490744,35.0669641 6.27656938,34.9202595 C6.24952073,34.7368789 6.17158396,34.5901744 5.96940679,34.5168221 C5.90568202,34.4938995 5.84608331,34.480146 5.79106912,34.480146 C5.53387776,34.480146 5.36929363,34.7139563 5.24505324,34.8927524 C5.14006782,35.039457 4.99748937,35.2411757 4.80493969,35.4520634 C4.80081363,35.4199718 4.79622911,35.3924647 4.78660163,35.3603731 C4.75955298,35.2503447 4.64494008,34.9936118 4.25479775,34.9294286 C4.00264936,34.8927524 3.73674743,34.8927524 3.44379684,34.9385976 C3.33789452,34.9569357 3.23703517,34.9752737 3.14534484,34.9936118 C3.2186971,34.897337 3.32918394,34.7689705 3.48459904,34.6039279 C3.48918355,34.5993434 3.48918355,34.5993434 3.49422652,34.5947589 C3.59508588,34.489315 3.69548678,34.3884557 3.79176162,34.2967653 C4.20024201,33.8841589 4.38774872,33.6916092 4.38774872,33.4211228 L4.37445362,33.1552208 L4.17686098,33.0176853 C3.94305065,32.8526428 3.66339517,32.935164 3.37457065,33.0406079 C3.20494355,33.1002066 3.04907,33.1460518 2.91153452,33.1781434 C2.95279516,33.068115 2.99405581,32.9580866 3.03577491,32.8526428 L3.05411297,32.8022131 L3.08574613,32.7151073 L3.1040842,32.6738466 C3.85136033,30.7162582 3.8839104,30.3265744 3.89766394,29.0566634 C3.90224846,28.6807331 3.90637452,28.2039434 3.93892459,27.5575266 C3.94305065,27.5391885 3.94305065,27.516266 3.94305065,27.4979279 C3.94305065,27.4841743 3.94305065,27.4704208 3.94763517,27.4566672 C3.98935427,26.7460672 4.04895298,26.0217137 4.12184678,25.2469305 C4.12184678,25.2331769 4.12688975,25.2148388 4.12688975,25.2010853 C4.12688975,25.1873317 4.13147427,25.1689937 4.13147427,25.1552401 C4.1681504,24.8205705 4.20482653,24.4538092 4.25479775,24.0595408 L4.31943943,23.546075 L4.32402395,23.5185679 C4.42029879,22.8721511 4.51198911,22.3357627 4.6220175,21.8727266 C4.6220175,21.8681421 4.62660201,21.858973 4.62660201,21.8543885 C4.62660201,21.8452195 4.63072808,21.840635 4.63072808,21.8314659 C4.77789105,21.2217253 4.93376459,20.6945059 5.12172976,20.2314698 L5.12631427,20.2268853 C5.20837711,20.020582 5.29135685,19.8372014 5.37387815,19.6767433 C5.37800421,19.6675743 5.38258873,19.6584053 5.38763169,19.6492362 C5.39634227,19.6354827 5.40596976,19.6171446 5.41055427,19.6033911 C5.86900589,18.732333 6.34992163,18.3334801 6.74006396,18.012564 C7.20310009,17.6274646 7.68447429,17.2331962 7.55564938,16.3346311 C7.1480859,12.1489678 8.68344036,11.0165923 9.33948462,10.5306336 C9.57787946,10.3518375 9.80710527,10.1822104 9.81123133,9.86129425 C9.76997068,8.55012263 9.9308872,8.17877682 10.0684227,7.85327617 C10.1646975,7.62863488 10.2747259,7.38107101 10.3109436,6.95471101 C10.3893388,5.92777939 11.8426304,0.916903231 14.7029101,0.916903231 C18.9069114,0.95357936 20.6811191,2.04927872 21.4283953,2.95701292 C21.8506292,3.47047873 22.0065028,3.97936002 22.056474,4.35987486 C21.8226637,4.32319873 21.6305724,4.37362841 21.4930369,4.43781164 C20.5944718,4.84583357 20.4335553,6.50542842 20.2735556,8.10542456 C20.2139569,8.74725682 20.1263927,9.61831489 20.0076537,9.82920263 L19.9705191,9.86587876 C17.7607823,12.3185949 17.6645075,14.2624298 17.8575156,15.6973833 C17.8575156,15.7157214 17.8575156,15.738644 17.8621001,15.756982 C17.8666847,15.7753201 17.8666847,15.7936581 17.8708107,15.8119962 C17.9120714,16.1420814 17.9767131,16.4538285 18.0317272,16.7564065 C18.109664,17.1644285 18.1830163,17.5495278 18.1963114,17.8933665 C18.2146494,18.3793253 18.219234,19.1220169 18.2242769,20.0435046 L18.2242769,20.0526737 L18.2242769,20.0618427 C18.2242769,20.6165691 18.2242769,21.1942182 18.219234,21.7489446 L18.219234,21.7535291 L18.1963114,24.8114014 L18.1367127,24.8985072 C17.7704098,25.4348956 17.4770008,25.9254388 17.2381475,26.397644 C17.1927608,26.4847498 17.1464572,26.5764401 17.1051965,26.6635459 L17.0731049,26.7414827 C16.981873,26.9340324 16.8988933,27.1265821 16.830584,27.3145472 C16.7205556,27.5850337 16.6329914,27.8463511 16.5646821,28.0984995 C16.5280059,28.2222814 16.5000404,28.3414789 16.4729918,28.4606763 C16.4317311,28.6486414 16.399181,28.8366066 16.380843,29.0154027 C16.3258288,29.4463473 16.3308718,29.8589537 16.395055,30.2623911 C16.395055,30.2898982 16.399181,30.3174053 16.4037656,30.3449124 L16.4088085,30.367835 L16.413393,30.3953421 C16.247892,30.4732789 16.1245685,30.4732789 16.0415888,30.4549408 C15.8770047,30.4228492 15.7211311,30.2807292 15.5744266,30.0285808 C15.5698421,30.0194118 15.5652576,30.0148273 15.5602146,30.0056582 C15.5189539,29.932306 15.4822778,29.8543692 15.4456017,29.7718479 C15.3085247,29.4509318 15.1980378,29.1987834 15.101763,29.0154027 C14.9188408,28.6807331 14.7579243,28.5523666 14.4787272,28.5982118 C14.2311634,28.6394724 14.1165505,28.7907614 14.0569517,29.0154027 C14.0202756,29.1575227 14.0019375,29.3271498 13.9835995,29.5105305 C13.973972,29.5976363 13.9606769,29.6939111 13.9515079,29.8039395 C13.9331698,29.9231369 13.9189578,30.0606724 13.8960352,30.2119615 C13.8873246,30.2807292 13.8776972,30.3540815 13.8593591,30.4366027 C13.841021,30.5328776 13.822683,30.6291524 13.7997604,30.7208427 C13.7360356,31.0142518 13.6580988,31.2801537 13.5847466,31.5002105 C13.5480704,31.6102389 13.5113943,31.7110982 13.4788443,31.798204 C13.3876124,32.0411834 13.3005066,32.2520711 13.2266959,32.4171137 C13.1079569,32.6738466 13.0254356,32.8251357 13.0203926,32.8297202 L12.860393,33.2056505 L12.709104,33.5678273 C12.6398778,33.7328699 12.561941,33.9162505 12.4752937,34.1225537 C12.4432021,34.2004905 12.4060675,34.2875963 12.3693913,34.3747021 L12.1401655,34.906506 L11.8976446,35.465817 C11.847215,35.5850144 11.7963268,35.7042118 11.7413126,35.8234092 C11.6409117,36.0663886 11.5354679,36.3093679 11.43415,36.5477628 C11.3378752,36.1901705 11.1865862,35.9609447 11.0586782,35.8234092 C10.9715724,35.7225499 10.8936356,35.6721202 10.8610855,35.6491976 L10.5085362,35.4291408 L10.2513449,35.759226 C10.2330068,35.7821486 10.2197117,35.8050712 10.2013737,35.8234092 C9.98085843,36.1168183 9.7745552,36.3735512 9.57787946,36.602777 C9.5320343,36.6577912 9.49077365,36.7082208 9.44447004,36.7586505 C9.19690617,37.0428905 8.95392681,37.2996234 8.724701,37.5196802 C8.38590526,37.8497654 8.06498913,38.1064983 7.75782654,38.308217 C7.72527648,38.3311396 7.68860035,38.3540621 7.65696719,38.3724002 C7.31771299,38.5741189 6.99679686,38.7070699 6.62545106,38.7987602 C6.61628202,38.7987602 6.60711299,38.8033447 6.59794396,38.8033447 C6.37284421,38.8583589 6.14361841,38.8812815 5.94235815,38.9042041 Z M4.82327775,36.9970454 L4.75496846,37.1758415 C4.69995427,37.0658131 4.64035556,36.9512002 4.58534137,36.8320028 C4.7366304,36.7357279 4.87416588,36.6348686 5.00253234,36.5294247 C4.94751814,36.6852983 4.88287646,36.8411718 4.82327775,36.9970454 Z M2.60895645,31.353506 C2.29308329,30.5924763 2.02259684,29.8360311 1.79337103,29.0933395 C1.79337103,29.088755 1.79337103,29.088755 1.78832806,29.0841705 C1.83463167,29.088755 1.87589232,29.097924 1.91715297,29.097924 C2.16471684,29.097924 2.39806871,29.0474943 2.61399942,28.937466 C2.74649194,28.8732827 2.87073233,28.7861769 2.98534523,28.6807331 L2.98534523,28.6853176 C2.98534523,28.813684 2.98076071,28.937466 2.98076071,29.0474943 C2.97113323,29.9460595 2.96700716,30.3082363 2.60895645,31.353506 Z M1.4724549,27.9563795 L2.83818226,27.089906 C2.84322523,27.099075 2.84780974,27.1036595 2.84780974,27.1128285 C2.6919362,27.6262943 2.47187942,27.9838866 2.20551903,28.1168376 C2.01755387,28.2085279 1.78832806,28.1993589 1.50913103,28.0893305 C1.49537748,28.0480698 1.48575,28.0022247 1.4724549,27.9563795 Z M1.19692548,26.7139756 L2.37973065,25.962115 C2.42603426,26.0675588 2.46271039,26.1546647 2.49021748,26.2188479 L2.49434355,26.2234324 L1.25652419,27.0073847 C1.23360161,26.9111098 1.21526354,26.8102505 1.19692548,26.7139756 Z M1.0043758,25.4165576 L1.926322,24.834324 C1.96253968,24.9214298 1.99463129,25.0085356 2.03176587,25.0956414 L1.04105193,25.7283047 L1.04105193,25.7237201 C1.02729838,25.6228608 1.01400328,25.5174169 1.0043758,25.4165576 Z M0.92231296,24.0549563 L0.92231296,24.0503717 L1.49079296,23.6927795 C1.52242612,23.7844698 1.55497619,23.8715756 1.5870678,23.9632659 L0.926439024,24.3804569 C0.92231296,24.2704285 0.917728444,24.1604001 0.92231296,24.0549563 Z M1.0043758,22.5833266 L1.07772806,22.5374814 C1.10569361,22.6245872 1.13732677,22.7162775 1.16987683,22.8079679 L0.963115154,22.9409188 C0.977327154,22.8171369 0.991080702,22.6979395 1.0043758,22.5833266 Z M3.35164807,23.9128363 L3.34752201,23.9495124 C3.31497194,24.2108298 3.2879233,24.4583937 3.25995775,24.6967885 L2.86110484,24.6967885 C2.75611942,24.4400556 2.65526007,24.1741537 2.55394226,23.9128363 L3.35164807,23.9128363 Z M2.21010355,22.995933 C2.10924419,22.7254466 2.01755387,22.4595446 1.93549103,22.2119808 L3.61342394,22.2119808 C3.56253581,22.4503756 3.5171491,22.711693 3.47588846,22.995933 L2.21010355,22.995933 Z M1.71039129,20.5111253 L4.04895298,20.5111253 C3.96597323,20.7586891 3.89262098,21.0200066 3.82431169,21.2950775 L1.65079258,21.2950775 C1.59165232,21.0750208 1.55497619,20.8962246 1.54580716,20.7770272 C1.59577838,20.6807524 1.65079258,20.5936466 1.71039129,20.5111253 Z M22.3870176,7.96788908 L22.3870176,7.97247359 C21.9835802,7.89453682 21.5796843,7.98164262 21.1904589,8.24296004 C21.1858744,8.24296004 21.1858744,8.24754456 21.1812898,8.24754456 C21.1812898,8.2292065 21.1858744,8.21545295 21.1858744,8.19711488 C21.2821492,7.23895101 21.4563608,5.46015874 21.8735518,5.27219358 C21.9051849,5.25385551 21.9698266,5.26760906 22.0477634,5.29970067 L22.0477634,5.50141938 L22.1394537,5.50141938 C22.3274189,6.39540003 22.4145247,7.25270456 22.3870176,7.96788908 Z M21.644326,9.02691231 C21.6576211,9.01774327 21.6759591,9.01774327 21.6942972,9.00857424 C21.8689673,8.89396134 22.0248408,8.85270069 22.1894249,8.87562327 C22.1257002,9.06358844 22.089024,9.23780005 22.0661015,9.41659618 C22.0518895,9.41201166 21.9514886,9.37992005 21.7589389,9.12777166 C21.7268473,9.08651102 21.6855866,9.0544194 21.644326,9.02691231 Z M21.094184,9.07275747 L21.094184,9.06817295 C21.0983101,9.02232779 21.1028946,8.98106715 21.1125221,8.93522198 C21.1395707,8.95814456 21.1629518,8.99023618 21.1904589,9.00857424 C21.1675363,9.02232779 21.1395707,9.02691231 21.1166482,9.04525037 C21.1079376,9.04983489 21.1028946,9.06358844 21.094184,9.07275747 Z M22.4282782,11.5713188 C22.3182498,11.6813472 22.1481643,11.8372207 22.0335514,11.9426646 C21.5980224,12.336933 21.4517763,12.4698839 21.4517763,12.7174478 C21.4517763,12.8366452 21.4884524,12.9466736 21.5384237,13.0842091 C21.2541836,13.2492517 20.9882817,13.4280478 21.075846,13.776471 C21.1079376,13.9140065 21.1904589,14.0011123 21.2683956,14.0561265 C21.2225505,14.1340633 21.1858744,14.1982465 21.1491982,14.2532607 C21.0529234,14.4183033 20.9795711,14.5466698 20.952064,14.6842052 C20.9057604,14.8034027 20.5298301,15.2068401 19.9618085,15.4085588 C19.5349901,15.5598478 19.1228421,15.5552633 18.7377427,15.3948052 C18.6093763,14.1248943 18.7922985,12.5524052 20.6311479,10.5031265 C20.8140701,10.3334994 20.9245569,10.063013 21.0066198,9.64582199 L21.0066198,9.64123747 C21.0162473,9.65499102 21.0203733,9.67332908 21.0345853,9.68708263 C21.1537827,9.84295618 21.5159595,10.3105768 22.0294253,10.3334994 L22.0615169,10.3334994 C22.0661015,10.3334994 22.070686,10.3334994 22.074812,10.3289149 L22.074812,10.3334994 C22.1481643,10.8561343 22.3182498,11.2916633 22.4186508,11.5529807 C22.4186508,11.5621497 22.4236937,11.5667343 22.4282782,11.5713188 Z M17.522846,28.0984995 C17.5961982,27.8463511 17.6965991,27.5850337 17.8208395,27.3145472 L21.4930369,27.3145472 C21.4746989,27.3603924 21.4563608,27.4062376 21.4380227,27.4566672 L21.2683956,27.8876118 C21.2408886,27.9563795 21.2175075,28.0297318 21.1904589,28.0984995 L17.522846,28.0984995 Z M17.266113,29.8039395 C17.2523595,29.5517911 17.266113,29.2904737 17.3073737,29.0154027 L20.8420356,29.0154027 C20.7503453,29.2675511 20.6540705,29.5288685 20.5532111,29.8039395 L17.266113,29.8039395 Z M19.649603,32.4171137 C19.5629556,32.6784311 19.4753914,32.9443331 19.3974546,33.2056505 L13.8593591,33.2056505 C13.9285853,33.077284 14.0702468,32.8022131 14.2261204,32.4171137 L19.649603,32.4171137 Z M14.5470365,31.5002105 C14.6162627,31.2664002 14.684572,31.0050827 14.7354601,30.7208427 L14.9371788,30.7208427 C15.1893272,31.0646815 15.4964898,31.2755692 15.8490391,31.353506 C16.1474911,31.4176892 16.6100688,31.4085202 17.1560847,31.0142518 C17.2794081,30.9317305 17.3390069,30.8262866 17.3623879,30.7208427 L20.2277105,30.7208427 C20.1360202,30.9775757 20.0443298,31.2388931 19.9521811,31.5002105 L14.5470365,31.5002105 Z M22.1761298,25.6136918 C22.1073621,25.7695653 22.070686,25.8704247 22.070686,25.8704247 C22.0615169,25.8841782 21.9835802,26.0721434 21.8552137,26.397644 L18.2792911,26.397644 C18.4168266,26.1500801 18.5814107,25.8887627 18.7652498,25.6136918 L22.1761298,25.6136918 Z M19.1228421,23.9128363 L22.8729763,23.9128363 C22.7583634,24.1833227 22.6478766,24.4492246 22.5474757,24.6967885 L19.1182576,24.6967885 L19.1228421,23.9128363 Z M19.1315527,22.2119808 L23.6294215,22.2119808 C23.6243785,22.2211498 23.619794,22.2303188 23.6156679,22.2394879 C23.501055,22.4732982 23.3864421,22.7300311 23.2718292,22.995933 L19.1274266,22.995933 L19.1315527,22.2119808 Z M19.1411802,20.5111253 L23.9319995,20.5111253 C24.0374434,20.6669988 24.1378443,20.8412104 24.2254086,21.0475137 C24.179105,21.1208659 24.1245492,21.2079717 24.0599075,21.3225846 C24.0145208,21.3042466 23.9636327,21.2950775 23.9086185,21.2950775 L19.1361372,21.2950775 C19.1411802,21.0337601 19.1411802,20.7724427 19.1411802,20.5111253 Z M19.1361372,19.5621304 L19.1361372,19.5575459 C19.1641027,19.5712995 19.1961943,19.585053 19.2237014,19.594222 L19.1361372,19.594222 L19.1361372,19.5621304 Z M24.5962959,19.8647085 C24.0191053,19.1220169 23.1893079,18.7919317 22.2627772,18.9340517 C20.4065066,19.2228762 19.4437582,18.732333 19.1274266,18.5214453 L19.1274266,18.5168607 C19.1274266,18.2647124 19.1182576,18.0446556 19.1132146,17.8566904 C19.0999195,17.4486685 19.0169398,17.026893 18.9302924,16.5821949 C18.9206649,16.5225962 18.9069114,16.458413 18.8936163,16.3942298 C19.0449053,16.4217369 19.1961943,16.4354904 19.3520679,16.4354904 C19.7412933,16.4354904 20.1406047,16.3438001 20.5252456,16.1695885 C21.2087969,15.8532569 21.7635234,15.312284 21.8414602,14.895093 C21.8597982,14.8492478 21.8964744,14.7942336 21.9372766,14.7208814 C22.0110873,14.6062685 22.0981931,14.4549794 22.1944679,14.2578452 C22.212806,14.2257536 22.2261011,14.193662 22.2306856,14.1569859 C22.2586511,14.0377885 22.2673617,13.8910839 22.212806,13.7443794 C22.2953273,13.6939498 22.354926,13.6481046 22.4003127,13.5930904 C22.6024899,13.3592801 22.5149256,13.0796246 22.4186508,12.8320607 C22.492003,12.763293 22.5841518,12.6807717 22.6529195,12.6165885 C23.1796804,12.1397988 23.353892,11.9655872 23.3864421,11.7226078 C23.4089062,11.5667343 23.358935,11.4337833 23.2718292,11.218311 C23.0930331,10.7598594 22.7171028,9.79711102 23.1709699,8.88479231 C23.207646,8.82977811 23.225984,8.77476392 23.2392791,8.71974972 L23.2392791,8.71516521 C23.2392791,8.71058069 23.2443221,8.70141166 23.2443221,8.69682714 C23.3905682,7.72490972 23.2901673,6.39540003 22.9687927,5.03838325 C23.0150963,4.70371357 23.0792795,3.53466195 22.1577918,2.39770195 C20.8920069,0.838966456 18.3888611,0.0320916131 14.707953,0 C10.9303117,0 9.45868204,6.06531487 9.39404036,6.88135875 C9.37111778,7.1518452 9.31151907,7.2939652 9.22945623,7.48651488 C9.0639552,7.86702972 8.85765197,8.33923488 8.89020203,9.72375876 C8.86269494,9.74209683 8.83060332,9.76960392 8.7939272,9.7925265 C8.07874268,10.3197459 6.18487905,11.7226078 6.64333067,16.4446594 C6.69834486,16.8389278 6.60711299,16.9306182 6.15783041,17.301964 C5.75439299,17.6366336 5.20837711,18.0859162 4.69032679,19.007404 C4.21353711,19.0486646 3.69548678,19.0211575 3.14534484,18.9340517 C2.39806871,18.8194388 1.69709619,19.0990943 1.16024935,19.7225885 C1.13732677,19.7455111 1.1189887,19.7730182 1.10065064,19.7959408 C0.944777089,19.9884904 0.80311554,20.2085472 0.678875152,20.4561111 C0.670164571,20.4698646 0.665580055,20.4836182 0.660537087,20.4973717 C0.440938764,20.9329008 0.280022247,21.4509511 0.170452311,22.0240156 L0.160824827,22.0331846 L0.170452311,22.0469382 C0.156698762,22.1065369 0.142486762,22.1661356 0.133776181,22.2303188 C0.050796439,22.702524 0.0095357936,23.2343279 0.000825212908,23.7982234 C-0.0175128517,25.6045227 0.339620957,28.5890427 2.15050484,32.6004944 C2.068442,32.8113821 1.97629322,33.0406079 1.87589232,33.3019253 L1.84334226,33.4394608 C1.83463167,33.5815808 1.8846029,33.7924686 2.06385748,33.9437576 C2.21010355,34.0675395 2.40265323,34.1225537 2.64563258,34.1317228 C2.64563258,34.1408918 2.6502171,34.1454763 2.65526007,34.1546453 C2.29308329,34.5580828 2.12345619,34.8469073 2.08219555,35.1219783 C2.03589193,35.4291408 2.09549064,35.6629512 2.27016071,35.8234092 C2.53560419,36.0755576 2.87944291,35.9930363 3.21457104,35.9196841 L3.2186971,35.9196841 C3.2329091,35.9563602 3.24666265,35.9930363 3.25995775,36.0297125 L3.25537323,36.034297 C3.24666265,36.043466 3.23703517,36.0480505 3.22832459,36.0572195 C2.71944329,36.478995 2.37973065,36.7586505 2.60483039,37.1529189 C2.8340562,37.5609408 3.32918394,37.3867292 3.75095943,37.2354402 C3.75508549,37.2354402 3.75508549,37.2354402 3.76012846,37.2308557 C3.95267814,37.6388776 4.1539384,38.0056389 4.36070008,38.3311396 L4.36070008,38.3357241 C4.21353711,38.8904505 4.19519904,39.3351486 4.44276291,39.6377267 C4.55324975,39.7752621 4.74534098,39.9173822 5.08505363,39.9173822 C5.1487784,39.9173822 5.22258911,39.9127976 5.30006743,39.8990441 C5.45594098,39.871537 5.60723002,39.8577834 5.75851905,39.8394454 L5.76310357,39.8394454 L5.77273105,39.8394454 C5.85479389,39.8944596 5.94694266,39.9448892 6.03404847,39.9861499 L6.03404847,39.9907344 C5.75851905,40.724257 5.3184055,41.3248286 4.83748976,41.9895835 C4.03061491,43.0898673 3.12242226,44.3414402 2.72861232,46.5236699 C2.72356936,46.551177 2.71944329,46.5786841 2.71944329,46.6061912 L22.6891372,46.6061912 C22.6891372,46.5786841 22.6891372,46.5557615 22.6845527,46.5282544 C22.6620886,46.399888 22.6345815,46.2715215 22.6066159,46.1523241 L22.5841518,46.0377112 C22.5795673,46.0285422 22.5795673,46.0193732 22.5745243,46.0056196 C22.5428911,45.8726686 22.5103411,45.7488867 22.4736649,45.6067667 L22.4466163,45.5242454 C22.4328628,45.4784002 22.4186508,45.4279706 22.4099402,45.3912944 C22.3452985,45.1895757 22.2811153,44.9924415 22.212806,44.8136454 C22.1894249,44.7586312 22.1665024,44.6990325 22.1440382,44.6440183 L22.1027776,44.5385744 C21.923523,44.1167989 21.7080507,43.699608 21.4421488,43.2594944 C21.3921776,43.1815577 21.345874,43.1036209 21.3050718,43.0440222 C21.2541836,42.9660854 21.2087969,42.8927331 21.1537827,42.8147964 L20.7361333,42.2142247 C20.7320073,42.2142247 20.7320073,42.2096402 20.7274227,42.2050557 C20.7274227,42.2004712 20.7228382,42.1958867 20.7177953,42.1867176 L19.9434705,41.0910183 C19.9384275,41.0772647 19.9297169,41.0635112 19.9155049,41.0497576 C19.6775685,40.6738273 19.5033569,40.3299886 19.3749905,39.9861499 C21.0575079,39.2159512 21.6530366,37.2216867 22.1807144,35.4520634 C22.4236937,34.6268505 22.657504,33.8474828 22.9875892,33.191897 C23.4134908,32.1741344 23.785295,31.2022169 24.1011682,30.2669756 C24.1062111,30.2578066 24.1107957,30.2486376 24.1149217,30.2394685 C25.7887286,25.3432053 25.9812783,21.6343317 24.5962959,19.8647085 Z" id="Fill-1" fill="#000000" mask="url(#mask-2)"></path>
                </g>
            </g>
        </g>
    </g>
</svg>